<svg width="45" height="93" viewBox="0 0 45 93" fill="none" xmlns="http://www.w3.org/2000/svg">
<path d="M26.1961 16.0165C18.2484 5.33416 8.06096 1.41249 0.0410156 0.113281V36.4911H0.113267C0.643113 43.9735 4.90596 50.4214 11.0474 54.0063C17.3092 57.6393 21.0422 64.4721 21.0422 71.714C21.0422 80.9528 15.0453 89.1089 6.2065 91.8998L4.73738 92.3569H39.4182L37.9491 91.8998C29.1585 89.0849 23.1616 80.9287 23.1616 71.6899C23.1616 64.4481 26.8946 57.6152 33.1564 53.9822C39.2978 50.4214 43.5606 43.9495 44.0905 36.467H44.1627V26.5305C37.9491 25.929 31.4946 23.1381 26.1961 16.0165Z" fill="white"/>
</svg>
