<svg width="135" height="95" viewBox="0 0 135 95" fill="none" xmlns="http://www.w3.org/2000/svg">
<g clip-path="url(#clip0_758_209)">
<path d="M67.4341 48.3206C67.4341 48.3206 50.7556 6.73819 9.70859 0.0410203C9.70859 0.0410203 -9.16706 -0.0589387 6.81233 28.9288C6.81233 28.9288 10.907 49.9199 22.592 49.9199H28.3845C28.3845 49.9199 19.0965 53.8183 14.7021 61.515C14.7021 61.515 16.4998 68.2122 14.7021 71.5108C14.7021 71.5108 19.5958 76.9085 18.0978 81.2067C18.0978 81.2067 25.1886 85.1051 25.1886 89.3033C25.1886 89.3033 33.2782 90.003 34.8761 93.5015C34.8761 93.5015 39.8697 91.5024 42.4663 93.8014L50.8555 89.9031L67.9335 61.0153L67.4341 48.3206Z" fill="white"/>
<path d="M67.0345 48.3206C67.0345 48.3206 83.713 6.73819 124.76 0.0410203C124.76 0.0410203 143.636 -0.0589387 127.656 28.9288C127.656 28.9288 123.562 49.9199 111.877 49.9199H106.084C106.084 49.9199 115.372 53.8183 119.766 61.515C119.766 61.515 117.969 68.2122 119.766 71.5108C119.766 71.5108 114.873 76.9085 116.371 81.2067C116.371 81.2067 109.28 85.1051 109.28 89.3033C109.28 89.3033 101.19 90.003 99.5925 93.5015C99.5925 93.5015 94.599 91.5024 92.0023 93.8014L83.6131 89.9031L66.5352 60.9153L67.0345 48.3206Z" fill="white"/>
</g>
<defs>
<clipPath id="clip0_758_209">
<rect width="134.356" height="94.0492" fill="white"/>
</clipPath>
</defs>
</svg>
