<svg width="17" height="15" viewBox="0 0 17 15" fill="none" xmlns="http://www.w3.org/2000/svg">
<path d="M4.85714 8.55726C5.17919 8.55726 5.48805 8.44457 5.71577 8.24397C5.94349 8.04337 6.07143 7.7713 6.07143 7.48761C6.07143 7.20391 5.94349 6.93184 5.71577 6.73124C5.48805 6.53064 5.17919 6.41795 4.85714 6.41795C4.53509 6.41795 4.22624 6.53064 3.99851 6.73124C3.77079 6.93184 3.64286 7.20391 3.64286 7.48761C3.64286 7.7713 3.77079 8.04337 3.99851 8.24397C4.22624 8.44457 4.53509 8.55726 4.85714 8.55726ZM6.07143 10.6966C6.07143 10.9803 5.94349 11.2523 5.71577 11.4529C5.48805 11.6535 5.17919 11.7662 4.85714 11.7662C4.53509 11.7662 4.22624 11.6535 3.99851 11.4529C3.77079 11.2523 3.64286 10.9803 3.64286 10.6966C3.64286 10.4129 3.77079 10.1408 3.99851 9.94022C4.22624 9.73962 4.53509 9.62692 4.85714 9.62692C5.17919 9.62692 5.48805 9.73962 5.71577 9.94022C5.94349 10.1408 6.07143 10.4129 6.07143 10.6966ZM8.5 8.55726C8.82205 8.55726 9.13091 8.44457 9.35863 8.24397C9.58635 8.04337 9.71429 7.7713 9.71429 7.48761C9.71429 7.20391 9.58635 6.93184 9.35863 6.73124C9.13091 6.53064 8.82205 6.41795 8.5 6.41795C8.17795 6.41795 7.86909 6.53064 7.64137 6.73124C7.41365 6.93184 7.28571 7.20391 7.28571 7.48761C7.28571 7.7713 7.41365 8.04337 7.64137 8.24397C7.86909 8.44457 8.17795 8.55726 8.5 8.55726ZM9.71429 10.6966C9.71429 10.9803 9.58635 11.2523 9.35863 11.4529C9.13091 11.6535 8.82205 11.7662 8.5 11.7662C8.17795 11.7662 7.86909 11.6535 7.64137 11.4529C7.41365 11.2523 7.28571 10.9803 7.28571 10.6966C7.28571 10.4129 7.41365 10.1408 7.64137 9.94022C7.86909 9.73962 8.17795 9.62692 8.5 9.62692C8.82205 9.62692 9.13091 9.73962 9.35863 9.94022C9.58635 10.1408 9.71429 10.4129 9.71429 10.6966ZM12.1429 8.55726C12.4649 8.55726 12.7738 8.44457 13.0015 8.24397C13.2292 8.04337 13.3571 7.7713 13.3571 7.48761C13.3571 7.20391 13.2292 6.93184 13.0015 6.73124C12.7738 6.53064 12.4649 6.41795 12.1429 6.41795C11.8208 6.41795 11.512 6.53064 11.2842 6.73124C11.0565 6.93184 10.9286 7.20391 10.9286 7.48761C10.9286 7.7713 11.0565 8.04337 11.2842 8.24397C11.512 8.44457 11.8208 8.55726 12.1429 8.55726ZM17 2.67414C17 1.96492 16.6802 1.28474 16.1109 0.783239C15.5416 0.281739 14.7694 0 13.9643 0H3.03571C2.23059 0 1.45845 0.281739 0.88914 0.783239C0.319833 1.28474 0 1.96492 0 2.67414V12.3011C0 13.0103 0.319833 13.6905 0.88914 14.192C1.45845 14.6935 2.23059 14.9752 3.03571 14.9752H13.9643C14.7694 14.9752 15.5416 14.6935 16.1109 14.192C16.6802 13.6905 17 13.0103 17 12.3011V2.67414ZM1.21429 4.27863H15.7857V12.3011C15.7857 12.7266 15.5938 13.1347 15.2522 13.4356C14.9106 13.7365 14.4474 13.9056 13.9643 13.9056H3.03571C2.55264 13.9056 2.08935 13.7365 1.74777 13.4356C1.40619 13.1347 1.21429 12.7266 1.21429 12.3011V4.27863ZM3.03571 1.06966H13.9643C14.4474 1.06966 14.9106 1.2387 15.2522 1.5396C15.5938 1.8405 15.7857 2.24861 15.7857 2.67414V3.20897H1.21429V2.67414C1.21429 2.24861 1.40619 1.8405 1.74777 1.5396C2.08935 1.2387 2.55264 1.06966 3.03571 1.06966Z" fill="white"/>
</svg>
