<svg width="61" height="64" viewBox="0 0 61 64" fill="none" xmlns="http://www.w3.org/2000/svg">
<path d="M47.8268 5.84806C43.1188 2.42287 37.5723 0.398419 31.8044 0C34.5691 0.906703 37.1825 2.23743 39.5553 3.94644C42.5368 6.11183 45.0713 8.85562 47.0141 12.0212C48.9568 15.1867 50.2698 18.712 50.878 22.3956C51.4861 26.0793 51.3776 29.8492 50.5585 33.49C49.7395 37.1308 48.226 40.5713 46.1044 43.6149C41.8173 49.7639 35.3135 53.9226 28.0234 55.1765C20.7333 56.4304 13.2539 54.6767 7.2301 50.3012C4.36805 48.2171 1.91539 45.6021 0 42.5925C2.14665 48.8161 6.12744 54.2088 11.3959 58.0304C14.7529 60.481 18.5509 62.2307 22.5719 63.179C26.5929 64.1273 30.7577 64.2555 34.8274 63.5564C38.897 62.8572 42.7914 61.3445 46.2869 59.1049C49.7825 56.8653 52.8105 53.943 55.1971 50.5057C60.0154 43.5843 61.9456 34.9932 60.5636 26.6198C59.1817 18.2463 54.6006 10.7753 47.8268 5.84806Z" fill="#D2FDFF"/>
</svg>
